<svg version="1.1" id="Layer_1" xmlns="http://www.w3.org/2000/svg" xmlns:xlink="http://www.w3.org/1999/xlink" x="0px" y="0px" width="113.243px" height="106.2px" viewBox="0 0 113.243 106.2" enable-background="new 0 0 113.243 106.2" xml:space="preserve"><g><path fill="#ffffff" d="M30.554,97.182c-11.879,0-21.545-9.658-21.545-21.536c0-10.138,7.045-18.667,16.489-20.95
c-1.901-2.443-3.5-5.117-4.78-7.979C8.68,50.822,0,62.239,0,75.646C0,92.491,13.7,106.2,30.554,106.2
c7.561,0,14.481-2.764,19.821-7.321c-1.804-2.505-3.323-5.224-4.513-8.111C41.962,94.73,36.533,97.182,30.554,97.182z"/><path fill="#ffffff" d="M92.941,46.86c-0.551,1.217-1.164,2.416-1.839,3.589c-0.879,1.52-1.856,2.977-2.914,4.362
c9.231,2.435,16.045,10.857,16.045,20.835c0,11.878-9.657,21.536-21.536,21.536c-11.879,0-21.545-9.658-21.545-21.536
c0-8.104,4.496-15.175,11.132-18.854l-3.348-5.626l3.345,5.617c4.457-2.655,8.191-6.446,10.799-10.964
c0.028-0.048,0.052-0.098,0.08-0.146c0.214-0.374,0.42-0.752,0.617-1.132c0.053-0.104,0.102-0.208,0.154-0.312
c0.165-0.328,0.326-0.657,0.479-0.99c0.06-0.131,0.117-0.264,0.175-0.396c0.134-0.303,0.264-0.606,0.388-0.913
c0.063-0.156,0.124-0.313,0.185-0.471c0.106-0.275,0.208-0.552,0.305-0.829c0.066-0.188,0.131-0.376,0.193-0.564
c0.077-0.234,0.149-0.469,0.221-0.704c0.07-0.233,0.141-0.466,0.206-0.7c0.042-0.15,0.079-0.303,0.118-0.454
c0.469-1.797,0.772-3.628,0.904-5.477c0.003-0.039,0.004-0.078,0.006-0.116c0.033-0.49,0.054-0.981,0.063-1.474
c0.002-0.102,0.001-0.203,0.002-0.306c0.003-0.433-0.001-0.865-0.017-1.299c-0.004-0.13-0.01-0.259-0.016-0.388
c-0.02-0.409-0.048-0.818-0.084-1.229c-0.013-0.142-0.024-0.283-0.039-0.426c-0.041-0.4-0.092-0.8-0.149-1.199
c-0.021-0.146-0.039-0.292-0.062-0.438c-0.062-0.396-0.136-0.791-0.214-1.186c-0.029-0.149-0.054-0.298-0.085-0.446
c-0.081-0.378-0.173-0.754-0.268-1.131c-0.038-0.151-0.068-0.304-0.108-0.456c-1.304-4.864-3.729-9.23-7.053-12.821
c-2.065-2.232-4.476-4.168-7.185-5.731C65.515,0.402,58.34-0.71,51.584,0.425C42.897,1.884,34.901,7.06,30.163,15.266
c-4.078,7.072-5.162,15.299-3.047,23.188c2.105,7.881,7.161,14.464,14.233,18.552l-0.009,0.008c1.662,0.969,3.189,2.15,4.522,3.51
c1.19-2.887,2.709-5.605,4.504-8.103c-1.404-1.208-2.914-2.283-4.522-3.216l0.009-0.009c-4.984-2.87-8.547-7.517-10.039-13.078
c-1.484-5.553-0.72-11.362,2.149-16.347l0.004,0.002c5.222-9.045,16.06-12.869,25.592-9.622c1.307,0.446,2.59,1.021,3.829,1.738
c3.713,2.145,6.638,5.271,8.504,9.021c0.37,0.744,0.691,1.517,0.976,2.307c0.206,0.574,0.401,1.154,0.561,1.75
c0.112,0.418,0.208,0.838,0.294,1.259c0.027,0.131,0.05,0.262,0.075,0.393c0.056,0.296,0.104,0.593,0.147,0.889
c0.021,0.146,0.043,0.291,0.062,0.437c0.046,0.374,0.084,0.748,0.11,1.122c0.009,0.124,0.014,0.248,0.021,0.371
c0.017,0.323,0.028,0.646,0.031,0.969c0.001,0.167-0.001,0.333-0.004,0.499c-0.004,0.263-0.013,0.525-0.027,0.787
c-0.009,0.163-0.016,0.326-0.028,0.488c-0.028,0.374-0.065,0.747-0.113,1.118c-0.018,0.142-0.042,0.282-0.063,0.424
c-0.042,0.286-0.089,0.571-0.144,0.855c-0.034,0.177-0.071,0.353-0.11,0.528c-0.051,0.233-0.106,0.466-0.165,0.697
c-0.046,0.185-0.092,0.369-0.143,0.553c-0.055,0.193-0.117,0.386-0.177,0.578c-0.123,0.394-0.256,0.784-0.403,1.171
c-0.052,0.137-0.101,0.274-0.155,0.41c-0.091,0.228-0.189,0.454-0.289,0.68c-0.069,0.156-0.14,0.312-0.213,0.466
c-0.096,0.206-0.194,0.411-0.297,0.614c-0.146,0.285-0.298,0.568-0.457,0.849c-0.036,0.063-0.067,0.128-0.104,0.19
c-1.84,3.187-4.47,5.859-7.607,7.728l0.002,0.003c-9.267,5.26-15.53,15.211-15.53,26.601c0,16.845,13.709,30.554,30.554,30.554
c16.845,0,30.545-13.709,30.545-30.554C113.243,62.39,104.758,51.08,92.941,46.86z"/>
</g></svg>
